<?xml version="1.0" standalone="no"?>
<svg xmlns:xlink="http://www.w3.org/1999/xlink" id="wave" style="transform:rotate(180deg); transition: 0.3s" viewBox="0 0 1440 250" version="1.1" xmlns="http://www.w3.org/2000/svg"><defs><linearGradient id="sw-gradient-0" x1="0" x2="0" y1="1" y2="0"><stop stop-color="rgba(255, 249, 234, 1)" offset="0%"/><stop stop-color="rgba(255, 249, 234, 1)" offset="100%"/></linearGradient></defs><path style="transform:translate(0, 0px); opacity:1" fill="url(#sw-gradient-0)" d="M0,225L48,204.2C96,183,192,142,288,137.5C384,133,480,167,576,166.7C672,167,768,133,864,133.3C960,133,1056,167,1152,162.5C1248,158,1344,117,1440,87.5C1536,58,1632,42,1728,45.8C1824,50,1920,75,2016,100C2112,125,2208,150,2304,137.5C2400,125,2496,75,2592,62.5C2688,50,2784,75,2880,104.2C2976,133,3072,167,3168,158.3C3264,150,3360,100,3456,70.8C3552,42,3648,33,3744,45.8C3840,58,3936,92,4032,116.7C4128,142,4224,158,4320,158.3C4416,158,4512,142,4608,120.8C4704,100,4800,75,4896,79.2C4992,83,5088,117,5184,129.2C5280,142,5376,133,5472,137.5C5568,142,5664,158,5760,175C5856,192,5952,208,6048,204.2C6144,200,6240,175,6336,175C6432,175,6528,200,6624,187.5C6720,175,6816,125,6864,100L6912,75L6912,250L6864,250C6816,250,6720,250,6624,250C6528,250,6432,250,6336,250C6240,250,6144,250,6048,250C5952,250,5856,250,5760,250C5664,250,5568,250,5472,250C5376,250,5280,250,5184,250C5088,250,4992,250,4896,250C4800,250,4704,250,4608,250C4512,250,4416,250,4320,250C4224,250,4128,250,4032,250C3936,250,3840,250,3744,250C3648,250,3552,250,3456,250C3360,250,3264,250,3168,250C3072,250,2976,250,2880,250C2784,250,2688,250,2592,250C2496,250,2400,250,2304,250C2208,250,2112,250,2016,250C1920,250,1824,250,1728,250C1632,250,1536,250,1440,250C1344,250,1248,250,1152,250C1056,250,960,250,864,250C768,250,672,250,576,250C480,250,384,250,288,250C192,250,96,250,48,250L0,250Z"/></svg>